# Blender v2.79 (sub 0) OBJ File: ''
# www.blender.org
o Cube.002_Cube.004
v -0.500000 -0.500000 0.500000
v -0.500000 -0.500000 -0.500000
v 0.500000 -0.500000 -0.500000
v -0.500000 -2.908656 0.500000
v -0.500000 -2.908656 -0.500000
v 0.500000 -2.908656 -0.500000
vt 1.000000 0.000000
vt 0.000000 0.000000
vt 0.000000 1.000000
vt 1.000000 0.000000
vt 0.000000 1.000000
vt 0.000000 0.000000
vn 0.0000 1.0000 0.0000
vn 0.0000 -1.0000 0.0000
vn 0.7071 0.0000 0.7071
vn 0.0000 0.0000 -1.0000
vn -1.0000 0.0000 0.0000
s off
f 3/1/1 2/2/1 1/3/1
f 6/4/2 4/5/2 5/6/2
f 1/3/3 6/4/3 3/1/3
f 3/1/4 5/6/4 2/2/4
f 2/2/5 4/5/5 1/3/5
f 1/3/3 4/5/3 6/4/3
f 3/1/4 6/4/4 5/6/4
f 2/2/5 5/6/5 4/5/5
